TITLE ""
FILE "Disc6Track02.mp3" MP3
  TRACK 01 AUDIO
    TITLE "Disc6Track02_01"
    INDEX 01 00:00:00
  TRACK 02 AUDIO
    TITLE "Disc6Track02_02"
    INDEX 01 00:01:04
  TRACK 03 AUDIO
    TITLE "Disc6Track02_03"
    INDEX 01 00:03:01
  TRACK 04 AUDIO
    TITLE "Disc6Track02_04"
    INDEX 01 00:04:14
  TRACK 05 AUDIO
    TITLE "Disc6Track02_05"
    INDEX 01 00:08:24
  TRACK 06 AUDIO
    TITLE "Disc6Track02_06"
    INDEX 01 00:08:55
  TRACK 07 AUDIO
    TITLE "Disc6Track02_07"
    INDEX 01 00:10:05
  TRACK 08 AUDIO
    TITLE "Disc6Track02_08"
    INDEX 01 00:12:29
  TRACK 09 AUDIO
    TITLE "Disc6Track02_09"
    INDEX 01 00:13:52
  TRACK 10 AUDIO
    TITLE "Disc6Track02_10"
    INDEX 01 00:19:31
  TRACK 11 AUDIO
    TITLE "Disc6Track02_11"
    INDEX 01 00:19:64
  TRACK 12 AUDIO
    TITLE "Disc6Track02_12"
    INDEX 01 00:21:09
  TRACK 13 AUDIO
    TITLE "Disc6Track02_13"
    INDEX 01 00:23:52
  TRACK 14 AUDIO
    TITLE "Disc6Track02_14"
    INDEX 01 00:24:72
  TRACK 15 AUDIO
    TITLE "Disc6Track02_15"
    INDEX 01 00:29:22
  TRACK 16 AUDIO
    TITLE "Disc6Track02_16"
    INDEX 01 00:29:55
  TRACK 17 AUDIO
    TITLE "Disc6Track02_17"
    INDEX 01 00:31:05
  TRACK 18 AUDIO
    TITLE "Disc6Track02_18"
    INDEX 01 00:32:51
  TRACK 19 AUDIO
    TITLE "Disc6Track02_19"
    INDEX 01 00:33:72
  TRACK 20 AUDIO
    TITLE "Disc6Track02_20"
    INDEX 01 00:36:18
  TRACK 21 AUDIO
    TITLE "Disc6Track02_21"
    INDEX 01 00:36:53
  TRACK 22 AUDIO
    TITLE "Disc6Track02_22"
    INDEX 01 00:38:07
  TRACK 23 AUDIO
    TITLE "Disc6Track02_23"
    INDEX 01 00:40:55
  TRACK 24 AUDIO
    TITLE "Disc6Track02_24"
    INDEX 01 00:42:07
  TRACK 25 AUDIO
    TITLE "Disc6Track02_25"
    INDEX 01 00:44:17
  TRACK 26 AUDIO
    TITLE "Disc6Track02_26"
    INDEX 01 00:44:55
  TRACK 27 AUDIO
    TITLE "Disc6Track02_27"
    INDEX 01 00:45:72
  TRACK 28 AUDIO
    TITLE "Disc6Track02_28"
    INDEX 01 00:49:07
  TRACK 29 AUDIO
    TITLE "Disc6Track02_29"
    INDEX 01 00:50:22
  TRACK 30 AUDIO
    TITLE "Disc6Track02_30"
    INDEX 01 00:55:33
  TRACK 31 AUDIO
    TITLE "Disc6Track02_31"
    INDEX 01 00:55:64
  TRACK 32 AUDIO
    TITLE "Disc6Track02_32"
    INDEX 01 00:56:72
  TRACK 33 AUDIO
    TITLE "Disc6Track02_33"
    INDEX 01 00:59:07
  TRACK 34 AUDIO
    TITLE "Disc6Track02_34"
    INDEX 01 01:00:16
  TRACK 35 AUDIO
    TITLE "Disc6Track02_35"
    INDEX 01 01:03:23
  TRACK 36 AUDIO
    TITLE "Disc6Track02_36"
    INDEX 01 01:03:54
  TRACK 37 AUDIO
    TITLE "Disc6Track02_37"
    INDEX 01 01:04:67
  TRACK 38 AUDIO
    TITLE "Disc6Track02_38"
    INDEX 01 01:07:15
  TRACK 39 AUDIO
    TITLE "Disc6Track02_39"
    INDEX 01 01:08:26
  TRACK 40 AUDIO
    TITLE "Disc6Track02_40"
    INDEX 01 01:08:63
  TRACK 41 AUDIO
    TITLE "Disc6Track02_41"
    INDEX 01 01:10:15
  TRACK 42 AUDIO
    TITLE "Disc6Track02_42"
    INDEX 01 01:11:24
  TRACK 43 AUDIO
    TITLE "Disc6Track02_43"
    INDEX 01 01:12:49
  TRACK 44 AUDIO
    TITLE "Disc6Track02_44"
    INDEX 01 01:13:11
  TRACK 45 AUDIO
    TITLE "Disc6Track02_45"
    INDEX 01 01:14:24
  TRACK 46 AUDIO
    TITLE "Disc6Track02_46"
    INDEX 01 01:17:03
  TRACK 47 AUDIO
    TITLE "Disc6Track02_47"
    INDEX 01 01:18:14
  TRACK 48 AUDIO
    TITLE "Disc6Track02_48"
    INDEX 01 01:19:51
  TRACK 49 AUDIO
    TITLE "Disc6Track02_49"
    INDEX 01 01:20:07
  TRACK 50 AUDIO
    TITLE "Disc6Track02_50"
    INDEX 01 01:21:24
  TRACK 51 AUDIO
    TITLE "Disc6Track02_51"
    INDEX 01 01:23:35
  TRACK 52 AUDIO
    TITLE "Disc6Track02_52"
    INDEX 01 01:24:50
  TRACK 53 AUDIO
    TITLE "Disc6Track02_53"
    INDEX 01 01:28:70
  TRACK 54 AUDIO
    TITLE "Disc6Track02_54"
    INDEX 01 01:29:28
  TRACK 55 AUDIO
    TITLE "Disc6Track02_55"
    INDEX 01 01:30:55
  TRACK 56 AUDIO
    TITLE "Disc6Track02_56"
    INDEX 01 01:32:01
  TRACK 57 AUDIO
    TITLE "Disc6Track02_57"
    INDEX 01 01:33:28
  TRACK 58 AUDIO
    TITLE "Disc6Track02_58"
    INDEX 01 01:33:67
  TRACK 59 AUDIO
    TITLE "Disc6Track02_59"
    INDEX 01 01:35:19
  TRACK 60 AUDIO
    TITLE "Disc6Track02_60"
    INDEX 01 01:37:27
  TRACK 61 AUDIO
    TITLE "Disc6Track02_61"
    INDEX 01 01:38:56
